<svg width="223" height="54" viewBox="0 0 223 54" xmlns="http://www.w3.org/2000/svg">
    <g fill="#FFF" fill-rule="evenodd">
        <path d="M128.954 43.955c2.314 0 4.259-.73 5.836-2.192 1.627-1.462 2.44-3.302 2.44-5.52 0-1.436-.419-2.715-1.258-3.836-.84-1.121-1.958-1.909-3.357-2.362v-.152c2.467-1.083 3.7-2.96 3.7-5.632 0-2.117-.775-3.868-2.326-5.254-1.552-1.411-3.408-2.117-5.57-2.117h-9.879v27.065h10.414zm-.534-15.46h-6.37v-8.278h6.522c1.195 0 2.2.415 3.013 1.247.814.857 1.221 1.814 1.221 2.873 0 1.083-.42 2.054-1.259 2.91-.839.832-1.881 1.248-3.127 1.248zm.686 12.134h-7.057v-8.883h6.905c1.347 0 2.466.44 3.356 1.323.89.882 1.335 1.915 1.335 3.1 0 1.209-.432 2.255-1.297 3.137-.89.882-1.97 1.323-3.242 1.323zm17.66 3.93c2.416 0 4.35-1.058 5.799-3.174h.152v2.57h3.357V32.539c0-2.394-.75-4.277-2.25-5.65-1.501-1.374-3.548-2.06-6.142-2.06-3.331 0-5.849 1.209-7.552 3.628l3.09 1.928c1.144-1.638 2.695-2.457 4.653-2.457 1.297 0 2.428.422 3.395 1.266.966.844 1.45 1.871 1.45 3.08v.795c-1.349-.756-3.065-1.134-5.15-1.134-2.441 0-4.393.567-5.855 1.7-1.463 1.135-2.194 2.66-2.194 4.574 0 1.815.693 3.327 2.08 4.536 1.385 1.21 3.108 1.815 5.168 1.815zm.268-3.099c-1.043 0-1.952-.302-2.728-.907-.775-.605-1.163-1.36-1.163-2.268 0-1.008.477-1.852 1.43-2.533.954-.68 2.143-1.02 3.567-1.02 1.958 0 3.484.428 4.577 1.285 0 1.462-.578 2.734-1.735 3.818-1.157 1.083-2.473 1.625-3.948 1.625zm16.516 2.495V33.711c0-1.562.47-2.904 1.411-4.026.941-1.12 2.111-1.682 3.51-1.682 3 0 4.539 1.512 4.615 4.536v11.416h3.51V32.313c0-2.394-.617-4.24-1.85-5.538-1.234-1.298-2.995-1.947-5.284-1.947-1.195 0-2.346.303-3.452.907-1.106.605-1.926 1.361-2.46 2.268h-.153v-2.57h-3.356v18.522h3.509zm20.674 0V38.02l2.86-2.797 5.837 8.732h4.234v-.151l-7.629-11.038 7.285-7.182v-.151h-4.5l-8.087 8.127V16.89h-3.51v27.065h3.51z" fill-rule="nonzero"/>
        <path d="M13.808 43.955c1.246 0 2.41-.176 3.49-.53 1.081-.352 2.028-.856 2.842-1.511a7.23 7.23 0 0 0 1.926-2.363c.47-.92.706-1.959.706-3.118 0-1.588-.426-2.917-1.278-3.988-.852-1.071-1.977-1.859-3.376-2.363v-.302a6.87 6.87 0 0 0 2.613-2.211c.7-.97 1.05-2.174 1.05-3.61a6.04 6.04 0 0 0-.65-2.76 7.226 7.226 0 0 0-1.773-2.249c-.75-.642-1.634-1.146-2.651-1.512a9.632 9.632 0 0 0-3.28-.548H2.747v27.065h11.061zm-.763-16.027h-5.15v-6.464h5.303c1.119 0 1.996.315 2.632.945.635.63.953 1.386.953 2.268 0 .882-.324 1.644-.972 2.287-.649.642-1.57.964-2.766.964zm.572 11.34H7.896v-6.955h5.569c1.373 0 2.41.333 3.109 1.001.699.668 1.048 1.506 1.048 2.514 0 1.008-.343 1.833-1.03 2.476-.686.642-1.678.964-2.975.964zm17.508 4.687v-9.072c0-.756.108-1.455.325-2.098a5.251 5.251 0 0 1 .915-1.682c.394-.479.871-.85 1.43-1.115a4.317 4.317 0 0 1 1.87-.397c.534 0 .985.044 1.354.132.368.088.705.208 1.01.36l1.335-4.499a4.578 4.578 0 0 0-1.201-.491c-.47-.126-1.036-.19-1.697-.19-.534 0-1.075.076-1.622.228a6.296 6.296 0 0 0-1.525.642c-.47.277-.897.605-1.278.983a4.788 4.788 0 0 0-.916 1.247h-.305v-2.57H26.13v18.522h4.996zm13.313-21.206c.89 0 1.653-.309 2.288-.926a3.018 3.018 0 0 0 .954-2.249c0-.882-.318-1.632-.954-2.25a3.168 3.168 0 0 0-2.288-.925c-.433 0-.846.082-1.24.245a3.18 3.18 0 0 0-1.717 1.683 3.08 3.08 0 0 0-.247 1.247 3.08 3.08 0 0 0 .934 2.25c.292.289.636.516 1.03.68.394.163.807.245 1.24.245zm2.517 21.206V25.433h-4.997v18.522h4.997zm13.198 8.77c1.475 0 2.816-.234 4.024-.7a8.783 8.783 0 0 0 3.109-2.003c.864-.87 1.538-1.928 2.021-3.175.484-1.248.725-2.653.725-4.215V25.433h-4.768v2.003h-.305c-.585-.806-1.354-1.442-2.308-1.909-.953-.466-2.079-.699-3.375-.699a8.18 8.18 0 0 0-3.262.68 8.553 8.553 0 0 0-2.803 1.947c-.814.844-1.475 1.865-1.984 3.062-.508 1.197-.763 2.526-.763 3.988 0 1.462.255 2.785.763 3.969.509 1.184 1.17 2.199 1.984 3.043a8.553 8.553 0 0 0 2.803 1.947 8.18 8.18 0 0 0 3.262.68c1.296 0 2.422-.233 3.375-.7.954-.466 1.723-1.102 2.308-1.908h.305v1.285c0 1.739-.458 3.093-1.373 4.063-.915.97-2.162 1.456-3.738 1.456-.992 0-1.895-.271-2.708-.813-.814-.542-1.399-1.304-1.755-2.287l-4.768 1.89c.229.655.598 1.31 1.106 1.966a8.943 8.943 0 0 0 1.907 1.795c.763.542 1.66.983 2.69 1.323 1.03.34 2.206.51 3.528.51zm.19-13.041a4.92 4.92 0 0 1-1.792-.34 4.665 4.665 0 0 1-1.564-1.002 4.99 4.99 0 0 1-1.106-1.626c-.28-.642-.42-1.38-.42-2.211 0-.832.14-1.569.42-2.211.28-.643.648-1.191 1.106-1.645a4.53 4.53 0 0 1 1.564-1.02 4.92 4.92 0 0 1 1.793-.34c.61 0 1.214.113 1.811.34a4.62 4.62 0 0 1 1.583 1.001c.458.441.827.99 1.107 1.645s.42 1.398.42 2.23c0 .832-.14 1.569-.42 2.211a4.99 4.99 0 0 1-1.107 1.626 4.62 4.62 0 0 1-1.583 1.001 5.07 5.07 0 0 1-1.811.34zm18.958 4.271v-9.034c0-.756.095-1.468.286-2.136.19-.668.47-1.254.84-1.758.368-.504.82-.9 1.353-1.19.534-.29 1.145-.435 1.831-.435 1.094 0 1.946.334 2.556 1.002.61.667.915 1.644.915 2.93v10.621h4.997V32.728c0-2.444-.578-4.372-1.735-5.783-1.157-1.411-2.944-2.117-5.36-2.117-1.245 0-2.37.284-3.375.85-1.005.568-1.774 1.292-2.308 2.174h-.305l.305-3.364V16.89h-4.997v27.065h4.997zm25.175.302c.814 0 1.558-.069 2.231-.208a8.29 8.29 0 0 0 1.889-.623l-1.412-4.347c-.229.151-.47.27-.724.359-.255.088-.598.132-1.03.132-.662 0-1.17-.201-1.526-.605a1.913 1.913 0 0 1-.515-.926 5.025 5.025 0 0 1-.134-1.19v-7.182h4.578v-4.234h-4.578v-5.67H98.26v5.67h-3.28v4.234h3.28v8.127c0 2.091.597 3.704 1.792 4.838.509.504 1.138.9 1.888 1.19.75.29 1.596.435 2.537.435zM213.455 15.062l1.884 5.855h6.264l-5.042 3.633 1.884 5.905-4.99-3.634-5.093 3.634 1.935-5.905-5.042-3.633h6.213l1.987-5.855zm-11.09-11.564 1.338 4.159h4.45l-3.582 2.581 1.339 4.195-3.546-2.582-3.617 2.582 1.374-4.195-3.581-2.581h4.413l1.411-4.159zM187.71 0l.991 3.08H192l-2.654 1.913.992 3.107-2.626-1.912-2.68 1.912 1.018-3.107-2.653-1.912h3.27L187.71 0z"/>
    </g>
</svg>
